<svg xmlns="http://www.w3.org/2000/svg" aria-hidden="true" style="position:absolute;width:0;height:0;overflow:hidden"><defs>
<symbol id="icon-antenna" viewBox="0 0 30 32"><path fill="#2e2f42" d="m29.773 22.098-8.443-8.505.937-4.615c.242.094.499.144.758.146h.032a2.16 2.16 0 1 0-2.029-1.42l-.005-.015-4.96.605L7.972.161a.53.53 0 0 0-.377-.16.533.533 0 0 0-.373.155L5.709 1.66a.535.535 0 0 0 0 .754l.814.826C5.38 5.302 4.707 7.762 4.707 10.379c0 4.105 1.656 7.824 4.336 10.525l-.001-.001c.041.04.09.073.143.097l.003.001c-.034.18-.051.364-.052.547v6.187h-6.4a2.67 2.67 0 0 0-2.667 2.667v1.067c0 .295.239.533.533.533h24.533a.533.533 0 0 0 .533-.533v-1.067a2.67 2.67 0 0 0-2.667-2.667h-6.4v-2.742c.915.2 1.968.317 3.047.32h.002a14.784 14.784 0 0 0 7.117-1.822l-.077.039.818.823a.53.53 0 0 0 .377.16.533.533 0 0 0 .373-.155l1.513-1.504a.535.535 0 0 0 0-.754zM22.28 6.233a1.067 1.067 0 1 1 .754 1.822h-.004a1.067 1.067 0 0 1-.747-1.823h-.002zm-1.256 3.505-.598 2.946-1.175-1.182 1.774-1.763zm-.605-.902-1.92 1.909-1.485-1.493 3.405-.415zM23.004 28.8a1.6 1.6 0 0 1 1.6 1.6v.533H1.137V30.4a1.6 1.6 0 0 1 1.6-1.6h20.267zm-7.467-2.133v1.067h-5.333v-1.067h5.333zM10.204 25.6v-4.053c0-1.294 1.196-2.347 2.667-2.347s2.667 1.053 2.667 2.347V25.6h-5.333zm6.4-1.696v-2.357c0-1.882-1.675-3.413-3.733-3.413h-.058c-1.353 0-2.54.707-3.213 1.771l-.009.016a13.816 13.816 0 0 1-3.811-9.55c0-2.314.567-4.496 1.569-6.414l-.036.077 18.602 18.708c-1.823.947-3.979 1.502-6.266 1.502-1.079 0-2.129-.124-3.136-.358l.093.018zm11.289-.684L6.836 2.039l.755-.752 7.935 7.98c.004 0 .006.007.01.01l13.115 13.191-.757.752z" style="fill:var(--color1, #2e2f42)"/><path fill="#4d5ae5" d="M12.876 20.267h-.007a1.6 1.6 0 0 0-.002 3.2h.007a1.6 1.6 0 0 0 .002-3.2zm.373 1.978a.534.534 0 0 1-.752-.756.533.533 0 0 1 .373-.155.534.534 0 0 1 .374.911h.005z" style="fill:var(--color2, #4d5ae5)"/></symbol>
<symbol id="icon-astranaut" viewBox="0 0 32 32"><path fill="#4d5ae5" d="M31.974 4.524a.538.538 0 0 0-.427-.363h-.003l-1.91-.278-.855-1.731c-.179-.365-.777-.365-.956 0l-.855 1.731-1.91.278a.536.536 0 0 0-.296.91l1.383 1.348-.326 1.903a.536.536 0 0 0 .525.624.524.524 0 0 0 .252-.064l-.003.001 1.709-.899 1.709.899a.536.536 0 0 0 .774-.566v.003l-.326-1.903 1.383-1.348a.535.535 0 0 0 .134-.551l.001.004zm-2.463 1.327a.533.533 0 0 0-.153.475v-.003l.191 1.114-1-.526a.525.525 0 0 0-.501.001l.003-.001-1.001.526.191-1.114a.53.53 0 0 0-.153-.472l-.81-.789 1.119-.163a.537.537 0 0 0 .401-.289l.001-.003.5-1.013.5 1.013a.54.54 0 0 0 .399.292h.003l1.119.163-.809.789zm-3.377 14.671h-1.067v1.067h1.067v-1.067zm0 2.134h-1.067v1.067h1.067v-1.067zm1.066-1.067h-1.067v1.067H27.2v-1.067zm-2.133 0H24v1.067h1.067v-1.067zm-2.667 4.8h-1.067v1.067H22.4v-1.067zm0 2.133h-1.067v1.067H22.4v-1.067zm1.067-1.066H22.4v1.067h1.067v-1.067zm-2.134 0h-1.067v1.067h1.067v-1.067zM16 24.256h-1.067v1.067H16v-1.067zm0 2.133h-1.067v1.067H16v-1.067zm1.067-1.067H16v1.067h1.067v-1.067zm-2.134 0h-1.067v1.067h1.067v-1.067zm-9.066-19.2H4.8v1.067h1.067V6.122zm0 2.133H4.8v1.067h1.067V8.255z" style="fill:var(--color2, #4d5ae5)"/><path fill="#4d5ae5" d="M6.933 7.189H5.866v1.067h1.067V7.189zm-2.133 0H3.733v1.067H4.8V7.189z" style="fill:var(--color2, #4d5ae5)"/><path fill="#2e2f42" d="M24.715 14.159a1.78 1.78 0 0 0-1.179-.704l-.009-.001a1.769 1.769 0 0 0-1.344.355l.004-.003-1.252.96-1.898 1.417-1.358-.541c2.421-1.086 4.114-3.508 4.114-6.32 0-3.823-3.123-6.933-6.961-6.933s-6.961 3.11-6.961 6.933v.001c0 1.398.418 2.698 1.136 3.782l-.016-.025-2.769-.024c-.009 0-.015.004-.023.005a.523.523 0 0 0-.159.032l.004-.001-.038.013c-.006.003-.013.003-.019.006l-3.234 1.597-1.893.911a.429.429 0 0 0-.064.036l.001-.001a1.78 1.78 0 0 0-.594 2.305l-.005-.01c.22.429.595.745 1.056.889a1.768 1.768 0 0 0 1.388-.133l-.009.005 1.388-.738 2.264-1.169 1.357-.008-6.783 6.75c-.316.315-.49.732-.49 1.178s.174.863.49 1.179c.325.323.752.485 1.179.485s.854-.162 1.18-.485l1.314-1.309 1.741-1.3.901.897-3.103 3.088c-.316.315-.49.732-.49 1.178s.174.863.49 1.179c.325.323.753.485 1.18.485s.855-.162 1.18-.485l3.483-3.469 1.01-1-.004-.004c.006-.006.015-.009.022-.015l5.166-5.658 3.471.494a.517.517 0 0 0 .265-.034l-.003.001c.018-.006.033-.015.05-.023.019-.01.039-.015.058-.027l3.213-2.133c.012-.008.018-.021.029-.029.013-.01.029-.014.041-.026l1.271-1.191c.662-.62.753-1.635.212-2.362zM2.13 17.77a.706.706 0 0 1-.563.05l.005.001a.719.719 0 0 1-.215-1.258l.002-.001 1.314-.632.449 1.313-.992.527zm3.498-1.828-1.548.8-.439-1.283 2.027-1.001-.04 1.484zm15.099-6.62a5.765 5.765 0 0 1-.614 2.592l.015-.033-4.181-1.899a1.863 1.863 0 0 0-.782-1.384l-.006-.004 1.464-4.86c2.378.756 4.105 2.974 4.105 5.588zm-11.789 0c0-3.235 2.644-5.867 5.894-5.867.253 0 .5.021.745.052l-1.432 4.754c-.019-.001-.037-.006-.057-.006-1.033 0-1.873.837-1.873 1.867s.84 1.867 1.873 1.867c.694 0 1.294-.383 1.618-.945l3.862 1.755a5.894 5.894 0 0 1-4.737 2.39c-3.25 0-5.894-2.632-5.894-5.867zm5.956.8c0 .441-.362.8-.806.8s-.806-.359-.806-.8c0-.441.362-.8.806-.8s.806.359.806.8zM2.465 25.146a.606.606 0 0 1-.855.001.59.59 0 0 1 0-.844l.962-.958.851.848-.959.955zm3.214 3.734a.606.606 0 0 1-.855.001.59.59 0 0 1 0-.844l.963-.959.852.848-.96.955zm3.481-3.469-.002.001-1.765 1.76-.852-.848 1.765-1.756c.04-.04.065-.088.09-.135.007-.014.02-.026.026-.04.017-.041.019-.085.026-.129.003-.025.014-.047.014-.073 0-.036-.013-.07-.02-.106-.006-.032-.006-.065-.019-.095a.56.56 0 0 0-.091-.138c-.01-.012-.014-.027-.025-.038h-.001l-.001-.002-1.607-1.6c-.017-.017-.039-.024-.058-.038a.563.563 0 0 0-.084-.057l-.003-.001a.444.444 0 0 0-.089-.032l-.004-.001a.502.502 0 0 0-.101-.02h-.023a.468.468 0 0 0-.076.006h.003a.608.608 0 0 0-.108.021l.004-.001a.502.502 0 0 0-.096.046l.002-.001c-.02.011-.042.015-.061.029l-1.773 1.324-.901-.897 2.399-2.386 4.361 4.289-.928.919zm6.819-7.017c-.015-.002-.03.004-.045.003h-.02a.552.552 0 0 0-.282.077l.003-.001a.481.481 0 0 0-.083.061c-.013.011-.028.017-.04.029l-4.698 5.146-4.328-4.257 2.833-2.818a.535.535 0 0 0-.378-.911H8.94v-.001l-2.219.013.028-1.607 3.104.027a6.926 6.926 0 0 0 4.978 2.101h.004c.437 0 .864-.045 1.279-.123.04.032.079.065.13.085l2.41.96.152.758.178.885-3.003-.427zm4.041.178-.313-1.558 1.446-1.08.947 1.257-2.08 1.381zm3.754-2.831-.838.785-.931-1.236.831-.637a.734.734 0 0 1 .547-.143h-.004a.72.72 0 0 1 .479.282l.001.002a.712.712 0 0 1-.085.947z" style="fill:var(--color1, #2e2f42)"/><path fill="#2e2f42" d="m13.602 18.544-2.143-2.133a.534.534 0 0 0-.754 0l-2.142 2.133a.537.537 0 0 0 0 .756l2.142 2.133a.533.533 0 0 0 .754-.001l2.143-2.133a.535.535 0 0 0 0-.756zm-2.519 1.759-1.387-1.381 1.387-1.381 1.387 1.381-1.387 1.381zm6.081-15.232-.258 1.036c.071.018 1.738.452 1.738 2.149h1.067c0-2.017-1.666-2.965-2.547-3.185zm2.547 4.251h-1.067v1.067h1.067V9.322z" style="fill:var(--color1, #2e2f42)"/></symbol>
<symbol id="icon-clock" viewBox="0 0 32 32"><path fill="#2e2f42" d="M31.297 15.301C31.295 6.849 24.442-.002 15.989 0S.686 6.855.688 15.308c.001 6.788 4.422 12.543 10.541 14.545l.108.031a.657.657 0 0 0 .532-.067l-.003.002a.64.64 0 0 0 .282-.352l.001-.005 3.865-12.25a1.912 1.912 0 1 0-.851-3.63l.011-.005-5.106-5.107a.637.637 0 1 0-.902.902l5.103 5.109a1.873 1.873 0 0 0 .532 2.306l.004.003-3.683 11.673C3.844 25.782.118 17.709 2.799 10.431S13.553-.573 20.831 2.108c7.278 2.681 11.004 10.754 8.323 18.032-1.345 3.581-4.003 6.406-7.374 7.937l-.088.036-.398-1.874a.639.639 0 0 0-1.05-.344h.001l-3.837 3.426a.638.638 0 0 0 .227 1.083l.005.001 4.899 1.564a.638.638 0 0 0 .818-.745l.001.004-.391-1.839c5.528-2.374 9.329-7.772 9.329-14.057v-.034.002zm-15.305-.637a.639.639 0 1 1 0 1.278.639.639 0 1 1 0-1.278zm2.101 14.864 2.184-1.948.603 2.84-2.787-.892z" style="fill:var(--color1, #2e2f42)"/><path fill="#4d5ae5" d="M15.354 3.185V4.46a.638.638 0 0 0 1.276 0V3.185a.638.638 0 0 0-1.276 0zM3.876 14.664a.638.638 0 0 0 0 1.276h1.275a.638.638 0 0 0 0-1.276H3.876zm24.232 1.275a.638.638 0 0 0 0-1.276h-1.275a.638.638 0 0 0 0 1.276h1.275z" style="fill:var(--color2, #4d5ae5)"/></symbol>
<symbol id="icon-close" viewBox="0 0 32 32"><path d="M32 3.223 28.777 0 16 12.777 3.223 0 0 3.223 12.777 16 0 28.777 3.223 32 16 19.223 28.777 32 32 28.777 19.223 16 32 3.223z"/></symbol>
<symbol id="icon-company-five" viewBox="0 0 44 32"><path  d="M3.333 26.694c.171.19.262.429.257.673.009.16-.023.319-.091.466s-.174.279-.307.384a1.838 1.838 0 0 1-1.162.31h.006H.001v-4.266h1.993a1.84 1.84 0 0 1 1.111.287l-.007-.004c.129.097.231.22.298.358s.098.289.089.44a.913.913 0 0 1-.233.653l.001-.001c-.155.17-.368.287-.607.334.27.044.514.174.688.365zM.947 26.05h.852l.063.002a.868.868 0 0 0 .483-.146l-.003.002c.064-.052.114-.117.145-.189s.045-.15.037-.228c.006-.077-.007-.155-.038-.227s-.08-.137-.142-.19a.884.884 0 0 0-.561-.143h.003-.838v1.119zm1.477 1.636c.068-.053.122-.12.157-.195s.05-.157.044-.238c.005-.082-.011-.165-.046-.24s-.09-.143-.16-.197a.938.938 0 0 0-.581-.154h.003-.894v1.173h.905a.97.97 0 0 0 .576-.15l-.004.002zm4.984.842-1.109-1.667h-.417v1.667h-.954v-4.266h1.806a1.904 1.904 0 0 1 1.263.367l-.005-.004c.252.232.405.537.429.86s-.08.645-.295.905c-.223.23-.527.383-.861.433l1.181 1.705H7.409zM5.882 26.28h.78c.542 0 .813-.215.813-.646.005-.088-.009-.176-.044-.259s-.087-.158-.155-.221a.906.906 0 0 0-.617-.173h.003-.789l.009 1.298zm6.739 1.39H10.72l-.336.859h-1l1.745-4.218h1.081l1.739 4.218h-1l-.329-.859zm-.255-.646-.695-1.801-.694 1.801h1.389zm6.781 1.504H18.2l-2.123-2.901v2.901h-.944v-4.266h.944L18.2 27.18v-2.918h.947v4.266zm5.403-1.021a1.968 1.968 0 0 1-.845.747l-.012.005c-.412.187-.869.28-1.331.269h-1.685v-4.266h1.685c.461-.011.918.079 1.331.263.362.164.661.424.857.744.195.347.296.73.296 1.119s-.102.772-.296 1.119zm-1.084-.102c.27-.283.419-.645.419-1.018s-.149-.735-.419-1.018a1.752 1.752 0 0 0-1.19-.362h.005-.657v2.761h.657c.433.024.859-.106 1.185-.363zM13.214.533s12.22 4.154 11.961 10.164v10.166s-12.211-4.156-11.957-10.166L13.213.533zm22.848 17.95c2.308-1.43 4.978-2.316 7.764-2.576v-3.182c-3.211 1.114-5.935 3.134-7.764 5.758z" /><path  d="M34.675 19.442c1.889-3.424 5.164-6.067 9.151-7.384v-9.17S26.422 8.805 26.79 17.364v14.474s.776-.265 1.995-.761c0-.463 0-.929.056-1.398.36-3.974 2.459-7.656 5.834-10.237z" /><path  d="M33.02 24.819c.091-1.004.295-1.997.609-2.963-2.102 2.229-3.374 4.995-3.639 7.909-.025.275-.039.55-.046.834a48.743 48.743 0 0 0 3.634-1.726l-.287.138a13.185 13.185 0 0 1-.327-2.957c0-.434.02-.864.061-1.288l-.004.054zm.692.052a13.04 13.04 0 0 0 .23 3.88l-.015-.085c4.755-2.561 10.098-6.519 9.892-11.302v-.417c-3.397.342-6.575 1.679-9.047 3.805a12.764 12.764 0 0 0-1.056 4.067l-.004.051z" /></symbol>
<symbol id="icon-company-four" viewBox="0 0 66 32"><path  d="M10.207 9.77h-.002c-1.862 0-3.371 1.361-3.371 3.04v.002c0 1.679 1.509 3.04 3.371 3.04h.002c1.862 0 3.371-1.361 3.371-3.04v-.002c0-1.679-1.509-3.04-3.371-3.04zm24.885-.972c-.005-2.332-1.035-4.567-2.863-6.215S27.922.005 25.336 0c-2.587.004-5.067.932-6.896 2.582s-2.86 3.884-2.865 6.217v12.858s19.515-1.96 19.517-12.856v-.002zM0 25.877c.005 1.622.721 3.177 1.994 4.325s2.996 1.794 4.796 1.799c1.799-.005 3.523-.651 4.795-1.798s1.989-2.701 1.994-4.323v-8.947S0 18.298 0 25.878zm6.789 1.603c-.352 0-.695-.094-.988-.27s-.52-.426-.655-.719-.17-.615-.101-.926c.069-.311.238-.597.487-.821s.565-.377.91-.439c.345-.062.702-.03 1.027.091s.603.327.798.59c.195.264.3.573.3.891.001.211-.044.42-.133.615s-.22.373-.385.522c-.165.149-.362.268-.578.349s-.448.123-.682.123v-.006zm12.418-2.883v3.329h-.686v-3.329h.686zm1.326 1.422v.535h-1.514v-.535h1.514zm.16-1.422v.537h-1.674v-.537h1.674zm3.133 1.587v.158c0 .253-.034.48-.103.681s-.165.373-.29.515a1.255 1.255 0 0 1-.44.319l-.008.003a1.398 1.398 0 0 1-.554.112h-.021.001c-.209 0-.4-.037-.574-.112a1.29 1.29 0 0 1-.447-.321l-.001-.001a1.487 1.487 0 0 1-.292-.503l-.003-.011a2.063 2.063 0 0 1-.103-.649v-.034.002-.158c0-.255.034-.482.103-.681.069-.201.165-.373.29-.514.127-.142.276-.25.448-.325.174-.075.365-.112.574-.112s.402.037.574.112c.174.075.323.183.448.325.127.142.224.313.293.514.07.2.105.427.105.681zm-.693.158v-.162c0-.177-.016-.332-.048-.466s-.079-.247-.142-.338a.623.623 0 0 0-.518-.277h-.021.001-.021a.613.613 0 0 0-.512.275l-.001.002c-.061.091-.107.204-.139.338s-.048.29-.048.466v.162c0 .175.016.331.048.466.032.134.079.248.142.341.063.091.139.161.229.208s.193.071.309.071c.116 0 .219-.024.309-.071s.165-.117.226-.208c.061-.093.107-.207.139-.341.032-.136.048-.291.048-.466zm2.92.713v-.007a.445.445 0 0 0-.028-.156l.001.003a.307.307 0 0 0-.095-.133h-.001c-.047-.041-.114-.082-.199-.121s-.196-.081-.332-.123a4.224 4.224 0 0 1-.457-.176l.027.011a1.798 1.798 0 0 1-.361-.216l.004.003a.965.965 0 0 1-.24-.281l-.002-.005a.775.775 0 0 1-.087-.36v-.018.001-.009c0-.135.034-.261.093-.372l-.002.004a.862.862 0 0 1 .254-.291l.002-.002c.11-.082.239-.146.389-.19.151-.044.316-.066.496-.066.245 0 .46.044.642.133s.325.21.425.364c.102.154.153.33.153.528h-.681v-.011a.512.512 0 0 0-.063-.247l.001.003a.424.424 0 0 0-.181-.175l-.002-.001a.632.632 0 0 0-.282-.064h-.025.001-.024a.69.69 0 0 0-.277.057l.005-.002a.39.39 0 0 0-.177.143l-.001.001a.348.348 0 0 0-.059.195v.006c0 .056.014.107.041.153.029.046.072.088.128.128s.126.077.208.112c.082.035.178.069.286.103.181.055.341.117.478.185.139.069.255.146.348.231a.85.85 0 0 1 .281.632v.027-.001c0 .145-.028.274-.085.389s-.138.211-.245.29c-.107.079-.234.139-.382.181s-.313.062-.496.062c-.165 0-.327-.021-.487-.064a1.49 1.49 0 0 1-.442-.202l.005.003c-.13-.088-.233-.201-.311-.338s-.117-.3-.117-.487h.688c0 .104.016.191.048.263s.077.13.135.174c.059.044.13.076.21.096.082.02.172.03.27.03h.024a.734.734 0 0 0 .274-.052l-.005.002a.356.356 0 0 0 .228-.332v-.009zm2.641-2.458v3.329h-.684v-3.329h.684zm1.024 0v.537h-2.716v-.537h2.716zm2.625 2.794v.535h-1.772v-.535h1.772zm-1.548-2.794v3.329h-.686v-3.329h.686zm1.317 1.356v.521h-1.541v-.521h1.541zm.229-1.356v.537h-1.77v-.537h1.77zm.402 0h1.242c.255 0 .473.038.656.114s.326.189.425.338.149.333.149.551c0 .178-.03.332-.091.46a.858.858 0 0 1-.252.317l-.002.001a1.282 1.282 0 0 1-.373.198l-.009.003-.217.114h-1.079l-.005-.535h.803c.12 0 .22-.021.3-.064s.139-.102.178-.178a.545.545 0 0 0 .062-.254v-.011.001c0-.107-.02-.199-.059-.277s-.1-.137-.181-.178-.182-.062-.304-.062h-.556v2.792h-.686v-3.329zm1.862 3.329-.759-1.484.725-.005.768 1.457v.032h-.734zm3.601-1.186h-.848v-.535h.848l.029.001a.697.697 0 0 0 .296-.066l-.004.002c.082-.044.143-.105.181-.183s.057-.165.057-.263c0-.099-.019-.191-.057-.277s-.098-.154-.181-.206-.189-.078-.32-.078h-.611v2.792h-.686v-3.329h1.297c.261 0 .484.047.67.142.187.093.331.222.43.386s.149.353.149.565c0 .215-.05.401-.149.558s-.242.278-.43.364a1.58 1.58 0 0 1-.629.129l-.043-.001h.002zm3.956.651v.535H40.39v-.535h1.772zm-1.548-2.794v3.329h-.686v-3.329h.686zm1.317 1.356v.521H40.39v-.521h1.541zm.229-1.356v.537h-1.77v-.537h1.77zm1.936 0v3.329h-.684v-3.329h.684zm1.025 0v.537h-2.716v-.537h2.716zm2.625 2.794v.535h-1.772v-.535h1.772zm-1.548-2.794v3.329h-.686v-3.329h.686zm1.317 1.356v.521h-1.541v-.521h1.541zm.229-1.356v.537h-1.77v-.537h1.77zm.402 0h1.242c.255 0 .473.038.656.114s.326.189.425.338.149.333.149.551c0 .178-.031.332-.091.46s-.146.235-.252.317l-.002.001a1.282 1.282 0 0 1-.373.198l-.009.003-.217.114h-1.079l-.005-.535h.803c.12 0 .22-.021.3-.064s.139-.102.178-.178a.545.545 0 0 0 .062-.254v-.011.001c0-.107-.02-.199-.059-.277s-.1-.137-.181-.178a.666.666 0 0 0-.282-.062h-.023.001-.556v2.792h-.686v-3.329zm1.861 3.329-.759-1.484.725-.005.768 1.457v.032h-.734zm2.872-.871v-.007a.445.445 0 0 0-.028-.156l.001.003a.307.307 0 0 0-.095-.133h-.001c-.047-.041-.114-.082-.199-.121s-.196-.081-.332-.123a4.224 4.224 0 0 1-.457-.176l.027.011a1.798 1.798 0 0 1-.361-.216l.004.003a.965.965 0 0 1-.24-.281l-.002-.005a.775.775 0 0 1-.087-.36v-.018.001c0-.139.03-.264.091-.377a.862.862 0 0 1 .254-.291l.002-.002c.11-.082.239-.146.389-.19s.316-.066.496-.066c.245 0 .46.044.642.133s.325.21.425.364c.102.154.153.33.153.528h-.681v-.011a.512.512 0 0 0-.063-.247l.001.003a.424.424 0 0 0-.181-.175l-.002-.001a.632.632 0 0 0-.282-.064h-.025.001-.024a.698.698 0 0 0-.278.057l.005-.002a.39.39 0 0 0-.177.143l-.001.001a.348.348 0 0 0-.059.195v.006c0 .056.014.107.041.153.029.046.072.088.128.128s.126.077.208.112c.082.035.178.069.286.103.181.055.341.117.478.185.139.069.255.146.348.231a.85.85 0 0 1 .281.632v.027-.001c0 .145-.028.274-.085.389s-.138.211-.245.29c-.107.079-.234.139-.382.181s-.313.062-.496.062c-.165 0-.327-.021-.487-.064a1.49 1.49 0 0 1-.442-.202l.005.003c-.13-.088-.233-.201-.311-.338s-.117-.3-.117-.487h.688c0 .104.016.191.048.263s.077.13.135.174c.059.044.13.076.21.096.082.02.172.03.27.03h.024a.734.734 0 0 0 .274-.052l-.005.002a.356.356 0 0 0 .228-.332v-.009z"/></symbol>
<symbol id="icon-company-one" viewBox="0 0 28 32"><path  d="m4.085 0 4.771 4.546L0 4.541v22.054h23.149v-8.432l4.766 4.541V.001H4.085zm18.854 17.629L9.411 4.74h13.528v12.889zm-4.2 5.74H3.663V8.536h1.066v13.828h14.01v1.004zM6.67 30.68l-.562-1.155h-.464l.814 1.529v.891h.421v-.891l.814-1.529h-.462l-.562 1.155zm2.071-1.155h.1l.914 2.42h-.439l-.196-.567h-.937l-.195.567h-.437l.911-2.42h.279zm-.444 1.522h.709l-.355-1.027-.354 1.027zm2.925-.401-.053-.068a1.267 1.267 0 0 1-.142-.23l-.003-.008a.64.64 0 0 1 .027-.569l-.002.003a.526.526 0 0 1 .218-.208l.003-.001a.706.706 0 0 1 .318-.075h.017-.001c.123 0 .229.025.317.075.09.049.158.114.206.194.049.081.073.17.073.266 0 .076-.014.146-.042.209s-.066.121-.115.173a1.276 1.276 0 0 1-.166.146l-.004.002-.168.122.479.566a.954.954 0 0 0 .105-.438v-.015.001h.346c0 .117-.012.229-.035.334a1.04 1.04 0 0 1-.179.403l.002-.003.355.418h-.464l-.141-.165a.927.927 0 0 1-.241.134l-.007.002c-.11.04-.236.063-.368.063h-.008c-.161 0-.3-.029-.417-.088s-.208-.14-.273-.243a.656.656 0 0 1-.095-.343v-.012.001c0-.099.021-.185.061-.259a.817.817 0 0 1 .167-.208l.001-.001c.066-.059.14-.119.224-.178zm.198.243-.05.036a.62.62 0 0 0-.13.136l-.001.002a.393.393 0 0 0-.022.411l-.001-.002a.358.358 0 0 0 .133.137l.002.001c.06.033.132.05.218.05h.002a.62.62 0 0 0 .39-.138l-.001.001-.539-.633zm.096-.442.148-.1a.552.552 0 0 0 .149-.135l.001-.001a.3.3 0 0 0 .045-.158v-.012.001a.24.24 0 0 0-.241-.233h-.015.001-.008a.245.245 0 0 0-.223.142l-.001.002a.33.33 0 0 0-.028.135v.006c0 .05.013.101.038.155.039.076.083.142.134.201l-.001-.001zm4.234.71h-.416a.792.792 0 0 1-.078.273l.002-.005a.386.386 0 0 1-.166.164l-.002.001a.612.612 0 0 1-.26.057l-.029-.001h.001c-.098 0-.181-.019-.251-.058s-.127-.094-.173-.165a.806.806 0 0 1-.099-.249l-.001-.005a1.601 1.601 0 0 1-.032-.321v-.012.001-.204c0-.129.012-.243.035-.342.024-.101.06-.186.108-.254s.107-.121.178-.156a.543.543 0 0 1 .237-.053h.012-.001c.116 0 .211.02.283.06a.381.381 0 0 1 .162.168l.001.002a.733.733 0 0 1 .073.265v.003h.416a1.042 1.042 0 0 0-.139-.435l.003.005c-.073-.125-.176-.223-.309-.294s-.296-.106-.489-.106c-.152 0-.289.027-.411.08a.873.873 0 0 0-.31.23l-.001.001c-.086.1-.153.22-.2.361a1.522 1.522 0 0 0-.068.454v.019-.001.201c0 .174.022.331.067.472s.111.261.196.361a.888.888 0 0 0 .302.227l.005.002c.12.053.254.08.404.08.195 0 .361-.035.497-.106s.242-.168.317-.291a.937.937 0 0 0 .133-.421v-.003zm2.309-.356v-.133c0-.183-.024-.346-.073-.49a1.098 1.098 0 0 0-.205-.373l.001.002a.867.867 0 0 0-.311-.232l-.006-.002a.995.995 0 0 0-.395-.081h-.014.001c-.148 0-.284.027-.407.081a.874.874 0 0 0-.316.233l-.001.001a1.09 1.09 0 0 0-.204.363l-.002.008a1.498 1.498 0 0 0-.073.466v.025-.001.133c0 .183.024.347.073.492.05.145.12.269.209.371s.196.18.317.234c.123.053.259.08.407.08.15 0 .286-.027.409-.08a.89.89 0 0 0 .315-.233l.001-.001c.089-.102.157-.226.204-.371s.072-.309.072-.492zm-.417-.136v.136c0 .135-.013.255-.04.359a.783.783 0 0 1-.115.267l.002-.003a.495.495 0 0 1-.407.215l-.025-.001h.001-.009a.55.55 0 0 1-.24-.055l.003.001a.538.538 0 0 1-.185-.159l-.001-.002c-.051-.072-.09-.16-.116-.264s-.04-.224-.04-.359v-.136c0-.135.013-.254.04-.357a.8.8 0 0 1 .117-.264l-.002.003a.498.498 0 0 1 .411-.215h.02-.001c.092 0 .175.018.248.055a.47.47 0 0 1 .183.158l.001.002c.051.07.089.157.115.261.027.103.04.222.04.357z" /></symbol>
<symbol id="icon-company-six" viewBox="0 0 67 32"><path  d="M33.799 15.249a2.082 2.082 0 0 1-.43-1.424v.006-2.054c0-.63.143-1.108.428-1.435s.776-.49 1.472-.489c.654 0 1.118.139 1.392.418.299.355.445.79.412 1.229v.483h-1.169v-.489l.001-.065c0-.146-.013-.289-.037-.428l.002.015a.464.464 0 0 0-.166-.283l-.001-.001a.668.668 0 0 0-.374-.113l-.052.002h.002a.712.712 0 0 0-.448.118l.003-.002a.553.553 0 0 0-.193.309l-.001.004c-.029.14-.046.3-.046.465v.046-.002 2.492c-.018.24.033.481.15.7.058.074.139.133.233.17s.199.05.302.039c.15.011.298-.03.414-.113a.503.503 0 0 0 .174-.3v-.003c.023-.135.036-.29.036-.449l-.001-.053v.003-.506h1.169v.462c.033.457-.109.911-.404 1.291-.269.305-.726.458-1.399.458s-1.181-.163-1.47-.501zm4.869.02c-.295-.32-.443-.786-.443-1.402v-2.16c0-.61.148-1.072.443-1.385s.789-.469 1.482-.468c.688 0 1.179.156 1.474.468.295.313.446.775.446 1.385v2.16c0 .61-.15 1.078-.45 1.4s-.789.483-1.47.483-1.184-.163-1.482-.48zm2.026-.518c.106-.2.154-.42.14-.639v-2.645a1.17 1.17 0 0 0-.141-.633l.003.006c-.059-.076-.142-.135-.239-.172s-.204-.05-.308-.037c-.105-.013-.212 0-.309.037s-.18.096-.24.172a1.128 1.128 0 0 0-.139.63v-.003 2.658c-.015.22.033.439.14.639a.727.727 0 0 0 .247.158.841.841 0 0 0 .606-.002l-.006.002a.742.742 0 0 0 .247-.158v-.013zm2.782-4.834h1.259l.947 3.986.968-3.986h1.225l.123 5.753h-.906l-.097-3.998-.935 3.998h-.726l-.968-4.013-.09 4.013h-.915l.114-5.753zm5.934 0h1.961c1.13 0 1.695.545 1.695 1.634 0 1.043-.595 1.564-1.784 1.563h-.668v2.557h-1.211l.007-5.753zm1.675 2.459c.12.013.241.004.356-.028s.221-.084.31-.154a.922.922 0 0 0 .173-.654v.004l.001-.063c0-.163-.022-.321-.062-.471l.003.013c-.017-.057-.048-.111-.089-.158s-.094-.086-.153-.116a1.234 1.234 0 0 0-.543-.092h.003-.47v1.719h.47zm3.727-2.459h1.3l1.334 5.753h-1.128l-.264-1.327h-1.16l-.271 1.327h-1.145l1.334-5.753zm1.111 3.76-.453-2.415-.453 2.415h.906zm2.6-3.76h.847l1.622 3.282V9.917h1.005v5.753h-.806l-1.632-3.426v3.426H58.52l.002-5.753zm5.828 3.56-1.349-3.552h1.135l.823 2.281.772-2.281h1.111l-1.332 3.552v2.194h-1.162v-2.194zm-28.683 4.709v.301h-.988v2.338h-.414v-2.338h-.993v-.301h2.395zm3.096 2.638h-.329a.135.135 0 0 1-.081-.026.129.129 0 0 1-.053-.06v-.001l-.286-.627h-1.37l-.286.627a.168.168 0 0 1-.044.071.15.15 0 0 1-.084.025h-.326l1.211-2.639h.421l1.225 2.628zm-2.004-.979h1.143l-.484-1.074a1.831 1.831 0 0 1-.087-.236l-.003-.013c-.017.05-.031.098-.046.14l-.044.111-.479 1.072zm4.091.72c.076.003.152.003.228 0 .136-.014.261-.041.38-.082l-.012.003c.053-.019.107-.042.162-.065v-.593h-.484c-.012.001-.024-.001-.035-.005s-.021-.009-.03-.016a.063.063 0 0 1-.024-.048v-.203h.939v1.011a1.856 1.856 0 0 1-.498.212l-.013.003c-.099.025-.2.043-.303.054a3.495 3.495 0 0 1-.353.017h-.017c-.212 0-.416-.036-.606-.102l.013.004a1.501 1.501 0 0 1-.486-.278l.002.002a1.268 1.268 0 0 1-.309-.41l-.003-.008a1.301 1.301 0 0 1-.111-.53v-.018.001-.019c0-.193.04-.376.113-.542l-.003.009c.07-.156.176-.299.312-.418.137-.117.298-.21.474-.271l.01-.003c.207-.067.427-.101.649-.098.113 0 .225.008.337.023.198.029.377.089.539.175l-.009-.004c.074.041.145.087.211.138l-.116.163c-.009.015-.023.027-.039.036s-.036.014-.055.014a.163.163 0 0 1-.076-.021h.001a1.633 1.633 0 0 1-.128-.068l.009.005a.918.918 0 0 0-.155-.069l-.007-.002a1.534 1.534 0 0 0-.214-.058l-.01-.002a1.761 1.761 0 0 0-.291-.023h-.017.001-.018a1.42 1.42 0 0 0-.459.076l.01-.003a1.034 1.034 0 0 0-.357.21l.001-.001a.927.927 0 0 0-.223.322l-.002.006a1.221 1.221 0 0 0 .003.888l-.003-.008c.118.253.329.446.588.539l.007.002c.154.046.317.063.479.052zm3.86-.042h1.322v.301h-1.726v-2.639h.414l-.01 2.338zm2.697.301h-.414v-2.639h.414v2.639zm1.54-2.626a.189.189 0 0 1 .063.048l1.77 1.989-.002-.047.002-.049v.002-1.966h.361v2.649h-.222a.201.201 0 0 1-.078-.016h.001a.23.23 0 0 1-.065-.05l-1.767-1.987v2.051h-.346v-2.639h.215c.023 0 .046.004.068.012zm5.241-.012v.29h-1.467v.871h1.189v.28h-1.189v.9h1.467v.29h-1.893v-2.632h1.893zM10.805 1.891l18.384 4.504v15.784l-18.384-4.502V1.891zM9.626.545v17.898l20.739 5.083V5.63L9.626.545z" /><path  d="M20.742 31.834 0 26.747V8.851l20.742 5.085v17.898z" /><path  d="m9.97 1.688 18.144 4.448-7.716 6.66-18.146-4.45L9.97 1.688zM9.626.545 0 8.851l20.742 5.085 9.624-8.306L9.627.545zm12.283 30.282 8.457-7.299-8.457-2.074v9.374z" /></symbol>
<symbol id="icon-company-three" viewBox="0 0 34 32"><path  d="M5.315 31.394c.013 0 .025.003.036.007s.022.011.03.019l.172.162a1.41 1.41 0 0 1-.475.304l-.01.003A1.86 1.86 0 0 1 4.43 32l-.051-.001h.003-.036c-.219 0-.428-.038-.623-.107l.013.004a1.408 1.408 0 0 1-.488-.292l.001.001a1.298 1.298 0 0 1-.312-.441l-.003-.008a1.455 1.455 0 0 1-.11-.562v-.015.001-.023c0-.399.175-.757.452-1.002l.001-.001c.147-.127.323-.226.517-.293.193-.065.414-.103.645-.103h.022-.001c.211-.004.422.028.618.094.171.063.327.151.463.26l-.144.173a.119.119 0 0 1-.036.031H5.36a.1.1 0 0 1-.049.013h-.009a.149.149 0 0 1-.063-.018h.001l-.078-.046-.108-.059a1.166 1.166 0 0 0-.333-.102l-.007-.001a1.467 1.467 0 0 0-.238-.018h-.019.001-.016c-.165 0-.324.028-.472.08l.01-.003c-.145.05-.27.124-.376.218l.001-.001a.983.983 0 0 0-.24.34l-.002.006c-.056.129-.088.28-.088.438v.02-.001c-.003.158.027.315.088.464.053.127.134.244.239.344.099.093.221.166.358.214.141.05.292.075.444.074.088.001.176-.004.263-.015.218-.023.414-.109.571-.238l-.002.001a.13.13 0 0 1 .082-.029zm4.977-.814c.003.195-.037.389-.116.573-.07.166-.181.318-.325.445s-.317.226-.509.292a2.151 2.151 0 0 1-1.325-.004l.015.004a1.53 1.53 0 0 1-.508-.294l.002.001a1.298 1.298 0 0 1-.324-.441l-.003-.008a1.472 1.472 0 0 1 .004-1.156l-.004.01c.074-.167.185-.32.327-.451.144-.123.317-.218.506-.282.421-.14.889-.14 1.31 0 .191.066.365.166.508.293.271.242.441.593.441.983l-.001.038v-.002zm-.453 0v-.024c0-.157-.03-.307-.085-.444l.003.008a.949.949 0 0 0-.231-.344 1.021 1.021 0 0 0-.357-.215l-.007-.002a1.539 1.539 0 0 0-.963.003l.011-.003a1.024 1.024 0 0 0-.365.218l.001-.001a.94.94 0 0 0-.231.338l-.002.006c-.11.3-.11.621 0 .92.054.135.133.25.232.344.101.094.225.168.364.215.307.098.645.098.952 0 .139-.048.263-.121.364-.215a.965.965 0 0 0 .229-.337l.002-.006c.058-.148.085-.304.082-.46zm3.848.482.045.103c.017-.037.032-.07.05-.103a.837.837 0 0 1 .058-.104l-.002.003 1.101-1.71c.022-.029.041-.048.063-.053a.272.272 0 0 1 .091-.009h-.001.325v2.781h-.386v-2.132a.683.683 0 0 1 0-.098v.002l-1.107 1.734c-.014.026-.037.048-.065.063s-.061.023-.095.023h-.062c-.034 0-.066-.008-.095-.023s-.051-.037-.065-.064l-1.14-1.745v2.232h-.373v-2.776h.337c.028 0 .055.003.08.01h-.002c.027.011.048.03.06.053l1.125 1.712c.02.029.039.061.054.095l.002.004zm4.143-.138v1.042h-.431v-2.777h.961c.181-.003.362.017.536.061.139.034.269.093.379.173a.713.713 0 0 1 .213.268l.002.004a.804.804 0 0 1 .073.337v.019-.001.011a.771.771 0 0 1-.311.62l-.002.001c-.111.084-.24.146-.381.184a1.797 1.797 0 0 1-.483.064h-.038.002l-.521-.007zm0-.298h.521c.113.001.226-.013.334-.042a.758.758 0 0 0 .243-.121l-.002.001a.531.531 0 0 0 .198-.414v-.004c.005-.077-.01-.154-.043-.226s-.085-.137-.151-.19a.925.925 0 0 0-.582-.149h.003-.521v1.145zm5.791 1.344H23.275a.166.166 0 0 1-.089-.026h.001a.17.17 0 0 1-.056-.063v-.001l-.293-.672h-1.471l-.304.672a.163.163 0 0 1-.146.091H20.571l1.293-2.782h.448l1.31 2.782zm-2.133-1.033h1.215l-.513-1.132a1.624 1.624 0 0 1-.094-.248l-.003-.013-.05.145a1.506 1.506 0 0 1-.05.126l.003-.008-.509 1.13zm3.995-1.736a.18.18 0 0 1 .065.05l1.885 2.097v-2.16h.386v2.782h-.222a.19.19 0 0 1-.082-.018h.001a.224.224 0 0 1-.069-.052l-1.883-2.095a.683.683 0 0 1 0 .098v-.002 2.068h-.386v-2.782h.234c.026 0 .051.005.074.014h-.001zm5.51 1.662v1.104h-.431v-1.104l-1.191-1.675h.395c.031 0 .06.009.085.025h-.001a.24.24 0 0 1 .057.062l.001.001.745 1.081c.03.046.056.088.078.129s.039.079.054.118l.056-.12a.989.989 0 0 1 .075-.13l-.002.003.735-1.088a.281.281 0 0 1 .055-.059h.001a.146.146 0 0 1 .087-.028h.396l-1.194 1.683zm-17.519-6.342c.187.02.377.037.569.052 2.907-1.111 5.366-2.93 7.07-5.228s2.577-4.975 2.511-7.696L20.42 8.912c.651 2.896.347 5.89-.88 8.647s-3.327 5.167-6.066 6.962z" /><path  d="m12.33 24.393.086.015c2.927-1.789 5.158-4.286 6.406-7.17s1.454-6.021.592-9.006l-4.563-3.899c1.846 3.205 2.589 6.791 2.142 10.342s-2.063 6.921-4.663 9.718zm15.475-9.531c-.775 2.989-2.658 5.685-5.369 7.687a16.968 16.968 0 0 1-2.453 1.52l-.098.045c2.207-.554 4.236-1.534 5.93-2.865s3.008-2.975 3.84-4.808l-1.851-1.579z" /><path  d="m27.079 14.422-2.635-2.251c-.05 2.567-.904 5.075-2.473 7.264s-3.795 3.98-6.448 5.185h.013c.591 0 1.182-.03 1.769-.09 2.479-.865 4.669-2.24 6.375-4.004s2.874-3.861 3.4-6.104zM12.711 2.689 9.568 0c-2.81.928-5.227 2.559-6.934 4.679S.009 9.311 0 11.885c.011 2.844 1.131 5.604 3.184 7.843s4.921 3.829 8.151 4.518c2.883-3.001 4.571-6.709 4.818-10.586s-.958-7.72-3.442-10.971zm21.63 11.319c-.011-3.374-1.585-6.608-4.378-8.994s-6.577-3.731-10.526-3.74h-.036a16.96 16.96 0 0 0-5.421.884l.12-.035 19.245 16.443c.659-1.454.997-2.999.995-4.558z" /></symbol>
<symbol id="icon-company-two" viewBox="0 0 25 32"><path  d="M10.531 1.806h-.084a9.502 9.502 0 0 0-.379-.014H9.779c-.244 0-.494.006-.741.019L9.01 1.81l-.029.001h.001a17.367 17.367 0 0 0-6.575 1.696l.104-.045-.266.128v13.625l.623-.211c.404-.148.982-.323 1.569-.477l.162-.036c1.488-.398 3.202-.638 4.967-.662h.015v1.79c-.237.002-.465.009-.693.021l.038-.002h-.051c-1.399.079-2.71.289-3.972.619l.139-.031c-1.59.398-3.124.996-4.566 1.779V2.53A17.86 17.86 0 0 1 5.139.61l.127-.028A17.87 17.87 0 0 1 9.777 0h.267c.314.008.621.022.909.044.759.053 1.511.173 2.249.358v1.762a13.158 13.158 0 0 0-2.133-.326l-.046-.003-.045-.004c-.152-.013-.304-.026-.446-.026zm3.102 1.801c.391.03.796.044 1.205.044a19.381 19.381 0 0 0 4.882-.639l-.135.03c1.589-.4 3.123-.998 4.564-1.781v17.163a17.874 17.874 0 0 1-4.665 1.92l-.127.028a18.052 18.052 0 0 1-4.51.581h-.116c-1.177 0-2.319-.148-3.409-.425l.095.021V3.274c.265.061.537.117.814.164.455.077.934.133 1.401.167zm8.734.133-.623.21c-.573.192-1.15.365-1.731.518-1.551.415-3.332.656-5.169.663h-.004c-.406 0-.78-.011-1.141-.034l-.497-.033v14.017l.427.038c.395.034.803.052 1.214.052a16.613 16.613 0 0 0 4.19-.553l-.116.026a16.994 16.994 0 0 0 3.286-1.189l-.102.045.266-.128V3.742zM1.684 25.977a.91.91 0 0 0-.695-.28h.002-.013c-.139 0-.272.028-.394.078l.007-.003a.916.916 0 0 0-.51.512l-.002.006a.997.997 0 0 0-.072.377v.01-.001 2.335c-.006.165.026.328.092.479.055.12.135.226.233.313a.814.814 0 0 0 .315.165l.006.001c.114.032.231.048.349.049a.972.972 0 0 0 .89-.604l.002-.006a.94.94 0 0 0 .075-.37v-.263h-.61V28.999a.515.515 0 0 1-.038.196l.001-.004a.367.367 0 0 1-.089.131.375.375 0 0 1-.125.066l-.003.001a.429.429 0 0 1-.128.022.314.314 0 0 1-.286-.124l-.001-.001a.545.545 0 0 1-.082-.288l.001-.027v.001-2.201a.74.74 0 0 1 .077-.329l-.002.004a.31.31 0 0 1 .261-.143l.039.002H.982h.009c.107 0 .202.051.263.13l.001.001c.068.09.104.2.101.313v.202h.604v-.246c0-.281-.106-.537-.28-.73l.001.001zm3.626-.027a1.048 1.048 0 0 0-1.381.001l.001-.001a.984.984 0 0 0-.235.321l-.002.006a1.089 1.089 0 0 0-.089.434v.019-.001 2.268c0 .156.033.303.092.437l-.003-.007c.055.12.136.227.237.313.09.084.197.151.316.195l.006.002a1.012 1.012 0 0 0 .735-.002l-.007.002c.121-.044.233-.111.33-.197a.958.958 0 0 0 .228-.307l.002-.006c.056-.127.089-.275.089-.43v-.03.001V26.707c0-.155-.033-.303-.092-.437l.003.007a1.027 1.027 0 0 0-.23-.327zm-.285 3.019.001.034a.406.406 0 0 1-.122.29.443.443 0 0 1-.575 0l.001.001a.394.394 0 0 1-.123-.287l.002-.039v.002-2.239l-.001-.034c0-.114.047-.216.122-.29a.443.443 0 0 1 .575 0l-.001-.001a.394.394 0 0 1 .123.287l-.002.039v-.002 2.239zm5.047 1V25.73h-.587l-.771 2.244h-.011l-.777-2.244h-.581v4.239h.606V27.39h.011l.593 1.823h.302l.598-1.823h.011v2.579h.606zm3.441-3.942a.843.843 0 0 0-.337-.23l-.006-.002a1.333 1.333 0 0 0-.419-.066h-.92v4.239h.604v-1.656h.311c.188.009.376-.031.545-.116a.89.89 0 0 0 .33-.32l.002-.004a1 1 0 0 0 .138-.363l.001-.006c.024-.16.035-.321.033-.482l.001-.07c0-.19-.022-.375-.063-.552l.003.016a.906.906 0 0 0-.223-.39zm-.312 1.292a.553.553 0 0 1-.057.224l.001-.003a.35.35 0 0 1-.154.148l-.002.001a.61.61 0 0 1-.253.054l-.034-.001h.002-.275v-1.441h.311l.029-.001c.088 0 .172.02.247.055l-.004-.002c.062.037.111.09.141.155l.001.002c.032.069.051.15.053.235v.283c0 .099.006.2 0 .291h-.006zm3.173-1.589h-.495l-.934 4.239h.604l.177-.911h.823l.177.911h.604l-.957-4.239zm-.557 2.751.297-1.537h.011l.296 1.537h-.604zm4.46-.197h-.011l-.912-2.554h-.581v4.239h.604V27.42h.012l.923 2.549h.568V25.73h-.604v2.554zm3.691-2.554-.486 1.685h-.012l-.486-1.685h-.64l.83 2.447v1.792h.604v-1.792l.83-2.447h-.64zM0 31.166h.291v.817h.198v-.817h.29v-.167H.001v.167zm2.447-.168-.381.984h.21l.081-.224h.392l.084.224h.215l-.391-.984h-.21zm-.031.595.134-.365.134.365h-.268zm2.45.027h.227v.127a.38.38 0 0 1-.234.083l-.017.001a.243.243 0 0 1-.192-.093v-.001a.408.408 0 0 1-.074-.235l.001-.023v.001c0-.219.095-.329.283-.329l.022-.001c.097 0 .178.067.2.157v.001l.195-.038c-.042-.192-.181-.289-.417-.289h-.013a.49.49 0 0 0-.332.128.492.492 0 0 0-.141.381v-.002l-.001.025a.53.53 0 0 0 .127.345l-.001-.001c.087.09.208.145.343.145l.033-.001h-.001.016c.155 0 .296-.06.401-.158v-.388h-.427v.166zm2.471-.622h-.199v.984h.69v-.167h-.49v-.817zm2.089 0h-.199v.984h.199v-.984zm2.043.658-.403-.657h-.193v.984h.185v-.643l.395.643h.198v-.984h-.182v.657zm1.846-.107h.49v-.167h-.49v-.216h.528v-.167h-.727v.984h.747v-.167h-.548v-.266zm4.477-.162h-.388v-.388h-.198v.984h.198v-.43h.388v.43h.198v-.984h-.198v.388zm1.857.162h.492v-.167h-.492v-.216h.529v-.167h-.727v.984h.746v-.167h-.548v-.266zm2.519 0c.171-.027.258-.117.258-.274a.23.23 0 0 0-.095-.219h-.001a.55.55 0 0 0-.249-.059l-.041.001h.002-.417v.984h.198v-.412h.039l.017-.001c.038 0 .075.008.108.023l-.002-.001a.204.204 0 0 1 .069.071l.001.001.215.313h.237l-.12-.192a.684.684 0 0 0-.216-.234l-.002-.002zm-.199-.136h-.146v-.247h.156a.538.538 0 0 1 .205.024l-.004-.001a.135.135 0 0 1 .033.046.135.135 0 0 1-.005.112v-.001a.128.128 0 0 1-.037.043.55.55 0 0 1-.162.024c-.014 0-.028 0-.041-.002h.002zm2.098.136h.49v-.167h-.49v-.216h.529v-.167h-.729v.984h.747v-.167h-.548v-.266z" /></symbol>
<symbol id="icon-diagram" viewBox="0 0 32 32"><path fill="#4d5ae5" d="M14.926 14.965h1.066v4.798h-1.066v-4.797zm4.264 2.132h1.066v2.665H19.19v-2.665zm-8.529 1.599h1.066v1.066h-1.066v-1.066zm-3.198-.533h1.066v1.599H7.463v-1.599z" style="fill:var(--color2, #4d5ae5)"/><path fill="#2e2f42" d="M1.599 28.291h25.587a1.6 1.6 0 0 0 1.599-1.599V24.56a1.6 1.6 0 0 0-1.599-1.599h-.533V9.668L29.681 6.8a1.608 1.608 0 1 0-.741-.753l-.004-.01L26.655 8.2V6.97a1.6 1.6 0 0 0-1.599-1.599H3.734A1.6 1.6 0 0 0 2.135 6.97v15.992h-.533a1.6 1.6 0 0 0-1.599 1.599v2.132a1.6 1.6 0 0 0 1.599 1.599zM30.384 4.837a.534.534 0 1 1 0 1.068.534.534 0 1 1 0-1.068zM3.198 6.969c0-.294.239-.533.533-.533h21.322c.294 0 .533.239.533.533v2.239l-1.066 1.013V8.035a.533.533 0 0 0-.533-.533H4.797a.533.533 0 0 0-.533.533v13.326c0 .294.239.533.533.533h19.19a.533.533 0 0 0 .533-.533v-9.674l1.066-1.01v12.284H3.198V6.969zm4.798 6.93h-.002a1.597 1.597 0 1 0 1.109 2.749h-.001l1.853.93a.528.528 0 0 0 .636-.123v-.001l3.939-4.431 3.872 2.901a.527.527 0 0 0 .686-.039l3.365-3.188v8.131H5.329V8.568h18.124v2.66L19.682 14.8l-3.904-2.927a.534.534 0 0 0-.718.071v.001l-3.993 4.493-1.493-.746c.011-.064.018-.129.02-.193A1.6 1.6 0 0 0 7.995 13.9zm.533 1.599a.533.533 0 1 1-1.068-.001.534.534 0 1 1 1.068 0zm3.198 8.529h5.331v.533a.533.533 0 0 1-.533.533h-4.264a.533.533 0 0 1-.533-.533v-.533zm-10.661.533c0-.294.239-.533.533-.533h9.062v.533a1.6 1.6 0 0 0 1.599 1.599h4.264a1.6 1.6 0 0 0 1.599-1.599v-.533h9.062c.294 0 .533.239.533.533v2.132a.533.533 0 0 1-.533.533H1.598a.533.533 0 0 1-.533-.533V24.56z" style="fill:var(--color1, #2e2f42)"/></symbol>
<symbol id="icon-fb" viewBox="0 0 32 32"><path  d="M21.329 5.313h2.921V.225C23.746.156 22.013 0 19.994 0c-4.212 0-7.097 2.649-7.097 7.519V12H8.249v5.688h4.648V32h5.699V17.689h4.46l.708-5.688h-5.169V8.082c.001-1.644.444-2.769 2.735-2.769z" /></symbol>
<symbol id="icon-inst" viewBox="0 0 32 32"><path  d="M31.969 9.408c-.075-1.7-.35-2.869-.744-3.882a7.845 7.845 0 0 0-1.849-2.837l-.001-.001A7.88 7.88 0 0 0 26.597.862l-.054-.018C25.524.45 24.361.175 22.661.1 20.948.019 20.404 0 16.06 0s-4.888.019-6.595.094c-1.7.075-2.869.35-3.882.744a7.845 7.845 0 0 0-2.837 1.849l-.001.001A7.89 7.89 0 0 0 .919 5.466l-.018.054C.507 6.539.232 7.702.157 9.402c-.081 1.713-.1 2.257-.1 6.601s.019 4.888.094 6.595c.075 1.7.35 2.869.744 3.882a7.941 7.941 0 0 0 1.849 2.837l.001.001a7.89 7.89 0 0 0 2.778 1.826l.054.018c1.019.394 2.182.669 3.882.744 1.706.075 2.25.094 6.595.094s4.888-.018 6.595-.094c1.7-.075 2.869-.35 3.882-.744a8.23 8.23 0 0 0 4.663-4.627l.019-.055c.394-1.019.669-2.182.744-3.882.075-1.707.094-2.251.094-6.595s-.006-4.888-.081-6.595zm-2.882 13.065c-.069 1.563-.331 2.407-.55 2.969a5.334 5.334 0 0 1-3.002 3.025l-.036.013c-.563.219-1.413.481-2.969.55-1.688.075-2.194.094-6.464.094s-4.782-.018-6.464-.094c-1.563-.069-2.407-.331-2.969-.55a4.947 4.947 0 0 1-1.837-1.193l-.001-.001a4.988 4.988 0 0 1-1.183-1.804l-.011-.034c-.219-.563-.481-1.413-.55-2.969-.075-1.688-.094-2.194-.094-6.464s.019-4.782.094-6.464c.069-1.563.331-2.407.55-2.969a4.885 4.885 0 0 1 1.198-1.836l.002-.002a4.988 4.988 0 0 1 1.804-1.183l.034-.011c.563-.219 1.413-.481 2.969-.55 1.688-.075 2.194-.094 6.464-.094 4.276 0 4.782.019 6.464.094 1.563.069 2.407.331 2.969.55a4.947 4.947 0 0 1 1.837 1.193l.001.001a4.988 4.988 0 0 1 1.183 1.804l.011.034c.219.563.481 1.413.55 2.969.075 1.688.094 2.194.094 6.464s-.019 4.77-.094 6.457z" style="fill:var(--color4, #f4f4fd)"/><path  d="M16.059 7.782c-4.538 0-8.22 3.682-8.22 8.22s3.682 8.22 8.22 8.22 8.22-3.682 8.22-8.22-3.682-8.22-8.22-8.22zm0 13.553a5.334 5.334 0 0 1-.006-10.664h.005a5.334 5.334 0 0 1 .006 10.664h-.005zM26.524 7.457a1.919 1.919 0 1 1-3.838 0 1.919 1.919 0 1 1 3.838 0z" /></symbol>
<symbol id="icon-lkd" viewBox="0 0 32 32"><path  d="M31.992 32v-.001H32V20.263c0-5.741-1.236-10.164-7.948-10.164-3.227 0-5.392 1.771-6.276 3.449h-.093v-2.913h-6.364v21.364h6.627V21.42c0-2.785.528-5.479 3.977-5.479 3.399 0 3.449 3.179 3.449 5.657v10.401h6.62zM.528 10.636h6.635V32H.528V10.636zM3.843 0C1.722 0 0 1.721 0 3.843s1.721 3.879 3.843 3.879c2.121 0 3.843-1.757 3.843-3.879A3.846 3.846 0 0 0 3.843 0z" /></symbol>
<symbol id="icon-menu" viewBox="0 0 32 32"><path stroke-linecap="round" stroke-linejoin="round" stroke-width="3" d="M1.348 25.043h29.538M1.348 15.735h29.538M1.348 6.428h29.538"/></symbol>
<symbol id="icon-send" viewBox="0 0 32 32"><path fill="#fff" d="m32 2.667-32 15 10.227 3.156L26 8.5 14.002 21.988l.01.003-.012-.003v7.345l5.735-5.576L27 25.999l5-23.333z" style="fill:var(--color5, #fff)"/></symbol>
<symbol id="icon-twt" viewBox="0 0 32 32"><path  d="M32 6.078c-1.19.522-2.458.868-3.78 1.036a6.555 6.555 0 0 0 2.873-3.58l.013-.046a12.858 12.858 0 0 1-4.076 1.574l-.084.014A6.559 6.559 0 0 0 22.154 3c-3.632 0-6.556 2.948-6.556 6.562 0 .52.044 1.02.152 1.496-5.454-.266-10.28-2.88-13.522-6.862a6.533 6.533 0 0 0-.898 3.316 6.56 6.56 0 0 0 2.891 5.437l.023.015a6.454 6.454 0 0 1-2.997-.825l.033.017v.072c0 3.188 2.274 5.836 5.256 6.446a6.408 6.408 0 0 1-1.669.216h-.054.003a5.842 5.842 0 0 1-1.279-.118l.037.006c.85 2.598 3.262 4.508 6.13 4.57a13.098 13.098 0 0 1-8.12 2.798h-.015.001c-.538 0-1.054-.024-1.57-.09C2.826 27.902 6.287 29 10.004 29h.063-.003c12.072 0 18.672-10 18.672-18.668 0-.29-.01-.57-.024-.848a13.186 13.186 0 0 0 3.258-3.359l.03-.047z" /></symbol>
<symbol id="icon-accept"  viewBox="0 0 32 32"><path  d="M22.92 8.98a1.823 1.823 0 0 1 1.198-.446h.023-.001.002c.466 0 .891.174 1.214.462l-.002-.002c.309.275.508.669.524 1.109V10.139c0 .431-.176.82-.46 1.101l-9.31 10.748a1.768 1.768 0 0 1-.556.372l-.012.004a1.867 1.867 0 0 1-1.954-.335l.002.002-6.174-5.7a1.632 1.632 0 0 1-.402-.513l-.004-.009a1.507 1.507 0 0 1 .358-1.798l.002-.001c.164-.151.358-.271.572-.352l.012-.004a1.88 1.88 0 0 1 1.381.027l-.012-.005c.221.091.409.218.568.374l4.886 4.508 8.104-9.53a.7.7 0 0 1 .046-.048h-.002z" /><path fill="none"  stroke-width="2" d="M4 1h24a3 3 0 0 1 3 3v24a3 3 0 0 1-3 3H4a3 3 0 0 1-3-3V4a3 3 0 0 1 3-3z" /></symbol>
<symbol id="icon-person" viewBox="0 0 24 32"><path  d="M12 16a4 4 0 0 0 0-8 4 4 0 0 0 0 8zm0 2c-2.671 0-8 1.34-8 4v1c0 .551.449 1 1 1h14c.549 0 1-.449 1-1v-1c0-2.66-5.331-4-8-4z"/></symbol>
<symbol id="icon-telephone" viewBox="0 0 24 32"><path d="m19.635 18.487-2.451-.28a1.927 1.927 0 0 0-1.583.551l-1.775 1.775c-2.752-1.42-4.94-3.607-6.322-6.278l-.038-.081 1.787-1.785a1.914 1.914 0 0 0 .548-1.591l.001.009-.28-2.432a1.933 1.933 0 0 0-1.918-1.708H5.933c-1.091 0-1.997.907-1.929 1.997.511 8.24 7.101 14.821 15.332 15.333 1.091.067 1.997-.84 1.997-1.931v-1.68c0-.981-.739-1.789-1.69-1.899l-.009-.001z"/></symbol>
<symbol id="icon-mail"  viewBox="0 0 24 32"><path d="M20 8H4c-1.1 0-1.989.9-1.989 2L2 22c0 1.1.9 2 2 2h16c1.1 0 2-.9 2-2V10c0-1.1-.9-2-2-2zm-.4 4.251-7.069 4.419c-.151.094-.334.15-.531.15s-.38-.056-.535-.153l.004.002L4.4 12.25a.85.85 0 1 1 .902-1.437L11.999 15l6.7-4.191a.849.849 0 1 1 .903 1.437l-.004.002z"/></symbol></defs></svg>